# xmcd CD database file
#
# Track frame offsets:
#	150
#	45091
#	84187
#	108140
#	140469
#
# Disc length: 2326 seconds
#
# Revision: 0
# Processed by: cddbd v1.5.1PL0 Copyright (c) Steve Scherf et al.
# Submitted via: CDex 1.51
#
DISCID=2b091405
DTITLE=Kenny Dorham - Kenny Dorham and the Jazz Prophets vol.1
DYEAR=1956
DGENRE=Jazz
TTITLE0=The Prophet
TTITLE1=Blues Elegante'
TTITLE2=DX
TTITLE3=Don't Explain
TTITLE4=Tahitian Suite
EXTD=YEAR: 1956
EXTT0=
EXTT1=
EXTT2=
EXTT3=
EXTT4=
PLAYORDER=
